<svg width="12" height="12" viewBox="0 0 12 12" fill="none" xmlns="http://www.w3.org/2000/svg">
<path d="M11.3847 6C11.3847 7.06498 11.0689 8.10604 10.4772 8.99153C9.88557 9.87703 9.04461 10.5672 8.0607 10.9747C7.07679 11.3823 5.99412 11.4889 4.94961 11.2812C3.9051 11.0734 2.94565 10.5605 2.1926 9.8075C1.43955 9.05445 0.926711 8.095 0.718945 7.05049C0.511178 6.00598 0.617812 4.92331 1.02536 3.9394C1.43291 2.95549 2.12307 2.11453 3.00856 1.52286C3.89406 0.931189 4.93512 0.615387 6.00009 0.615387C7.42818 0.615387 8.79778 1.18269 9.80759 2.1925C10.8174 3.20232 11.3847 4.57191 11.3847 6Z" fill="#C2B59B"/>
</svg>
